<svg xmlns="http://www.w3.org/2000/svg" data-name="icon_logo-small" viewBox="0 0 117 117"><circle fill-rule="evenodd" clip-rule="evenodd" fill="#E4051D" cx="58.5" cy="58.5" r="57.5"/><path fill-rule="evenodd" clip-rule="evenodd" fill="#FFF" d="M55.2 62.2c.2 2.7-.3 12.5.4 14.2.7 1.6 3.1 2.4 4.7 1.3 1.7-1.2 1.5-3.6 1.5-6 0-15.6 2.9-12.4-9.5-20.4l7.7-7.4c5.5 8.2 2.3 7.1 14.3 7.1 1.5 0 3.5.3 4.5-.7 1.2-1.1.3-3.3-1.3-3.3l-9.5-.4c-1.1-.3-3.5-4.8-4.2-5.8-1.4-2-2.4-4.7-4.6-5.7-4-1.9-7.4 3.2-11.7 7.5l-5 5c-2.1 2-2.7 5.1-.3 7.2.9.9 10.7 6 13 7.4zm10.4-36.4a5.6 5.6 0 1 1-5.6 5.6 5.5 5.5 0 0 1 5.6-5.6zm14.9 33.3a15 15 0 1 1 0 30.2 15 15 0 0 1 0-30.2zm0 4.9a10 10 0 0 1 10.1 10.1 10 10 0 0 1-10.1 10.1 10 10 0 0 1-10.1-10.1c0-5.5 4.5-10.1 10.1-10.1zm-44-4.9a15 15 0 1 1 0 30.2 15 15 0 0 1 0-30.2zm0 4.9a10 10 0 0 1 10.1 10.1 10 10 0 0 1-10.1 10.1 10 10 0 0 1-10.1-10.1C26.4 68.6 31 64 36.5 64z"/></svg>